<?xml version="1.0" encoding="UTF-8" standalone="no"?>
<!-- Created with Inkscape (http://www.inkscape.org/) -->

<svg
   width="55.070339mm"
   height="55.033329mm"
   viewBox="0 0 55.070339 55.033329"
   version="1.1"
   id="svg1"
   xml:space="preserve"
   sodipodi:docname="swan.svg"
   inkscape:version="1.3.2 (091e20e, 2023-11-25, custom)"
   xmlns:inkscape="http://www.inkscape.org/namespaces/inkscape"
   xmlns:sodipodi="http://sodipodi.sourceforge.net/DTD/sodipodi-0.dtd"
   xmlns="http://www.w3.org/2000/svg"
   xmlns:svg="http://www.w3.org/2000/svg"><sodipodi:namedview
     id="namedview1"
     pagecolor="#ffffff"
     bordercolor="#cccccc"
     borderopacity="1"
     inkscape:showpageshadow="0"
     inkscape:pageopacity="1"
     inkscape:pagecheckerboard="0"
     inkscape:deskcolor="#d1d1d1"
     inkscape:document-units="mm"
     showguides="false"
     inkscape:zoom="2.0510461"
     inkscape:cx="20.233577"
     inkscape:cy="186.73397"
     inkscape:window-width="1920"
     inkscape:window-height="1010"
     inkscape:window-x="-6"
     inkscape:window-y="-6"
     inkscape:window-maximized="1"
     inkscape:current-layer="layer1" /><defs
     id="defs1" /><g
     inkscape:label="Layer 1"
     inkscape:groupmode="layer"
     id="layer1"
     transform="translate(-115.37694,-107.66039)"><path
       d="m 155.9101,153.88373 -0.84566,-0.87249 v -19.7785 -19.7785 l 0.99219,-0.91128 0.99219,-0.91129 3.70417,-0.001 3.70417,-10e-4 0.99218,0.88308 0.99219,0.88308 v 19.86724 19.86725 l -0.98632,0.81301 -0.98633,0.81301 h -3.85656 -3.85657 z m 7.02754,-20.75719 0.068,-18.05782 h -2.25079 -2.2508 v 17.94757 17.94757 l 0.18654,0.18654 0.18654,0.18654 1.99628,-0.0763 1.99627,-0.0763 z"
       style="fill:#ff3232;fill-opacity:1"
       id="path1-3" /><path
       d="m 124.1601,149.19544 -0.84566,-0.8725 v -15.87664 -7.2337 l 0.8725,-0.84565 0.87249,-0.84566 h 3.83631 3.83631 l 0.97974,1.00335 0.97974,1.00335 v 7.13548 15.77844 l -0.98633,0.813 -0.98632,0.81301 h -3.85657 -3.85656 z m 6.95955,-16.7223 v -5.37997 h -2.11666 -2.11667 l -0.0688,5.11539 -0.0688,13.75833 0.13094,0.34193 0.13094,0.34193 2.05452,-0.0773 2.05453,-0.0773 z"
       style="fill:#ff3232;fill-opacity:1"
       id="path1-4"
       sodipodi:nodetypes="cccccccccccccccccccccccccccc" /><path
       d="m 140.17577,153.94321 -0.98633,-0.81301 v -11.90048 -2.61254 l 0.99219,-0.91128 0.99219,-0.91129 3.70417,0.004 3.70416,0.004 0.99219,0.8663 0.99219,0.86631 v 2.64556 11.9335 l -0.93525,0.82116 -0.93525,0.82116 h -3.76697 -3.76696 z"
       style="fill:#3f4da2;fill-opacity:1"
       id="path1-7"
       sodipodi:nodetypes="ccccccccccccccccc" /></g></svg>
